<?xml version="1.0" standalone="no"?>
<!DOCTYPE svg PUBLIC "-//W3C//DTD SVG 20010904//EN"
 "http://www.w3.org/TR/2001/REC-SVG-20010904/DTD/svg10.dtd">
<svg version="1.0" xmlns="http://www.w3.org/2000/svg"
 width="260.000000pt" height="260.000000pt" viewBox="0 0 260.000000 260.000000"
 preserveAspectRatio="xMidYMid meet">
<metadata>
Created by potrace 1.14, written by Peter Selinger 2001-2017
</metadata>
<g transform="translate(0.000000,260.000000) scale(0.100000,-0.100000)"
fill="#000000" stroke="none">
<path d="M0 1300 l0 -1300 1300 0 1300 0 0 1300 0 1300 -1300 0 -1300 0 0
-1300z m810 850 l0 -340 -350 0 -350 0 0 340 0 340 350 0 350 0 0 -340z m870
-850 l0 -1190 -380 0 -380 0 0 1190 0 1190 380 0 380 0 0 -1190z m810 850 l0
-340 -350 0 -350 0 0 340 0 340 350 0 350 0 0 -340z m-1680 -1250 l0 -790
-350 0 -350 0 0 790 0 790 350 0 350 0 0 -790z m1680 0 l0 -790 -350 0 -350 0
0 790 0 790 350 0 350 0 0 -790z"/>
</g>
</svg>
